<mxfile host="app.diagrams.net" modified="2024-04-02T07:01:06.309Z" agent="Mozilla/5.0 (Macintosh; Intel Mac OS X 10_15_7) AppleWebKit/537.36 (KHTML, like Gecko) Chrome/123.0.0.0 Safari/537.36" version="24.0.7" etag="nLEsxA4-q-VJQyk4l_j_" type="github">
  <diagram name="Page-1" id="XXMaXhBAnpBaaiVIRn2d">
    <mxGraphModel>
      <root>
        <mxCell id="0" />
        <mxCell id="1" parent="0" />
      </root>
    </mxGraphModel>
  </diagram>
</mxfile>
